# xmcd
#
# Track frame offsets:
#	150
#	10733
#	21263
#	30991
#	42286
#	52576
#	63751
#	74431
#	84886
#	94269
#	104252
#	112855
#
# Disc length: 1661 seconds
#
# Revision: 1
# Processed by: cddbd v1.5.2PL0 Copyright (c) Steve Scherf et al.
# Submitted via: audiograbber 1.83.01
#
DISCID=81067b0c
DTITLE=Chet Atkins - Hometown Guitar
DYEAR=1968
DGENRE=Country Instrumental
TTITLE0=Big Daddy
TTITLE1=Sittin' On Top Of The World
TTITLE2=Huntin' Boots
TTITLE3=Blue Guitar
TTITLE4=Cattle Call
TTITLE5=Back To Old Smoky Mountain
TTITLE6=Sweet Georgia Brown
TTITLE7=Blue Angel
TTITLE8=Get On With It
TTITLE9=Reed's Remble
TTITLE10=Pickin' Pot Pie
TTITLE11=The Last Thing On My Mind
EXTD=
EXTT0=
EXTT1=
EXTT2=
EXTT3=
EXTT4=
EXTT5=
EXTT6=
EXTT7=
EXTT8=
EXTT9=
EXTT10=
EXTT11=
PLAYORDER=
